<svg width="156" height="36" viewBox="0 0 156 36" fill="none" xmlns="http://www.w3.org/2000/svg">
<path d="M72 17.0695V13.8993H84.5059V17.0695H80.178V28.3917H76.3279V17.0695H72Z" fill="white"/>
<path d="M89.9104 22.2777V28.3917H86.0322V13.8993H89.7699V19.5887H89.8823C90.1259 18.8952 90.531 18.3551 91.0978 17.9682C91.6645 17.5767 92.346 17.3809 93.1423 17.3809C93.9057 17.3809 94.5685 17.5554 95.1306 17.9045C95.6973 18.2536 96.1352 18.7348 96.4444 19.3481C96.7582 19.9614 96.9128 20.6643 96.9081 21.4569V28.3917H93.0299V22.2777C93.0345 21.7399 92.9011 21.3177 92.6294 21.0111C92.3624 20.7044 91.9807 20.5511 91.4842 20.5511C91.0111 20.5511 90.6317 20.7044 90.346 21.0111C90.0603 21.3177 89.9151 21.7399 89.9104 22.2777Z" fill="white"/>
<path d="M103.994 28.5898C102.265 28.5898 100.905 28.0969 99.9116 27.1109C98.9233 26.1202 98.4292 24.745 98.4292 22.9854C98.4292 21.8626 98.654 20.8813 99.1036 20.0416C99.5533 19.2019 100.188 18.5485 101.008 18.0815C101.827 17.6144 102.794 17.3809 103.909 17.3809C104.996 17.3809 105.94 17.605 106.741 18.0532C107.546 18.5013 108.169 19.1429 108.609 19.9779C109.054 20.8082 109.277 21.8013 109.277 22.9571V23.8628H102.251V24.0327C102.251 24.5563 102.41 24.9903 102.729 25.3347C103.052 25.6744 103.502 25.8442 104.078 25.8442C104.476 25.8442 104.823 25.7617 105.118 25.5965C105.417 25.4267 105.624 25.1885 105.736 24.8818H109.277C109.094 26.0141 108.542 26.9151 107.619 27.585C106.701 28.2549 105.492 28.5898 103.994 28.5898ZM102.251 21.7116H105.708C105.698 21.2446 105.53 20.8648 105.202 20.5723C104.879 20.2751 104.476 20.1265 103.994 20.1265C103.52 20.1265 103.113 20.2728 102.771 20.5653C102.434 20.8577 102.261 21.2399 102.251 21.7116Z" fill="white"/>
<path d="M123.288 13.8993H127.166V23.4666C127.166 24.5705 126.909 25.5022 126.393 26.2617C125.883 27.0165 125.162 27.5897 124.23 27.9813C123.302 28.3681 122.211 28.5615 120.956 28.5615C119.691 28.5615 118.592 28.3681 117.66 27.9813C116.733 27.5897 116.014 27.0165 115.504 26.2617C114.998 25.5022 114.745 24.5705 114.745 23.4666V13.8993H118.651V23.2967C118.651 23.8345 118.855 24.2709 119.262 24.6059C119.674 24.9408 120.239 25.1083 120.956 25.1083C121.686 25.1083 122.258 24.9408 122.67 24.6059C123.082 24.2709 123.288 23.8345 123.288 23.2967V13.8993Z" fill="white"/>
<path d="M136.779 18.4282C136.742 17.9564 136.566 17.5885 136.252 17.3243C135.943 17.0601 135.472 16.928 134.84 16.928C134.236 16.928 133.796 17.0318 133.519 17.2394C133.243 17.4469 133.102 17.7111 133.098 18.0319C133.079 18.3763 133.227 18.657 133.54 18.874C133.859 19.091 134.358 19.2726 135.037 19.4189L136.217 19.6736C137.805 20.018 138.95 20.57 139.653 21.3295C140.355 22.0843 140.709 23.0137 140.714 24.1176C140.709 25.547 140.189 26.6462 139.154 27.4152C138.119 28.1794 136.69 28.5615 134.868 28.5615C133.618 28.5615 132.526 28.3752 131.594 28.0025C130.667 27.6298 129.946 27.0566 129.43 26.283C128.92 25.5046 128.662 24.5091 128.658 23.2967H132.367C132.4 23.9619 132.627 24.469 133.049 24.8181C133.475 25.1625 134.063 25.3347 134.812 25.3347C135.44 25.3347 135.913 25.2215 136.231 24.9951C136.554 24.7686 136.718 24.4761 136.723 24.1176C136.718 23.7874 136.557 23.5137 136.238 23.2967C135.92 23.075 135.36 22.8769 134.559 22.7023L133.126 22.391C131.852 22.1126 130.847 21.6479 130.112 20.9969C129.381 20.3412 129.018 19.4472 129.023 18.315C129.018 17.3951 129.262 16.5907 129.754 15.9019C130.25 15.2085 130.936 14.6683 131.812 14.2815C132.693 13.8946 133.702 13.7012 134.84 13.7012C136.002 13.7012 137.006 13.897 137.854 14.2885C138.702 14.6801 139.355 15.232 139.814 15.9444C140.278 16.652 140.512 17.48 140.517 18.4282H136.779Z" fill="white"/>
<path d="M145.377 28.3917H141.162L145.911 13.8993H151.251L156 28.3917H151.785L150.956 25.6178H146.206L145.377 28.3917ZM147.091 22.674H150.07L148.637 17.8904H148.525L147.091 22.674Z" fill="white"/>
<path d="M59.8214 4.4775V4.83618L58.7417 5.78864L58.2081 5.77118L57.8026 5.98612L57.913 6.41734V6.72229L56.9725 7.17233L56.8084 7.80103V8.98589L57.5462 9.847L57.4538 10.207L56.6788 10.512V10.9956L56.1217 11.2885L55.7549 11.4806H55.1468L54.1884 12.433L54.336 12.5768L54.5028 13.6542L53.8754 15.0566L53.6369 15.0204L53.5817 14.6241L52.986 14.5918L53.3955 15.2891L53.8754 15.8452L53.6727 16.6727L53.3404 17.202H53.0149L53.0646 16.6002L52.7833 16.1676L52.371 15.9567L52.3282 15.414L52.4579 14.7315L52.2565 14.6053L51.7946 15.0728L51.9614 15.414L51.9987 16.169L52.2938 16.3127L52.6068 16.8877L52.6743 17.2007L52.7157 17.3901L52.5861 17.8039L53.066 17.8401L53.4355 17.9987L53.3431 18.45L53.6562 18.6475L53.6382 18.8262L53.3238 19.1137L53.8768 19.5274V20.0661L53.4521 20.3173L53.7099 20.766L53.5265 21.2161L52.069 21.4485V22.0046L51.6457 22.7959L50.9631 22.941L50.8583 23.1143L50.4653 23.7658L50.4846 24.1258L49.6007 25.0407H49.2284L48.9333 25.6694L48.4534 25.9206L48.4451 26.0711L48.3252 27.933L48.6754 28.383L48.8243 29.0104L48.8436 29.0278L49.2118 29.3341V29.8204L50.0957 30.5566L50.1881 31.3841L50.5191 31.9873L51.1658 33.1628V34.9441H49.8006C49.8006 34.9441 49.802 34.928 49.8006 34.9239C49.7482 34.7923 49.4131 34.5075 49.4131 34.5075L48.8988 34.5465V33.9352H48.5472L48.3996 33.7028V33.3616L48.1045 33.3428L47.5157 32.6778L47.5902 32.3003L47.2951 32.3366L47.1462 32.0679L47.1655 31.9887L47.2951 31.4392L47.2013 30.5056L46.8883 30.3981L45.9492 29.3919L45.155 29.3368L44.2159 29.8755L43.8463 29.9655L43.2755 29.1407L41.7517 29.0305L41.5242 29.0144L41.5007 29.0305L41.0264 29.3731L40.7685 29.0856L40.4417 29.3677L39.0724 29.3731V29.9481L38.8146 30.2893L39.5151 30.9905L39.1276 31.2229L38.1871 30.7917L37.688 31.368L36.8413 31.3653L36.6027 30.5566L35.6251 30.2879V30.7017L35.4237 30.828L34.0765 30.4868H33.5056L31.6799 31.2767V31.6367L30.9435 32.1203L30.1313 32.2829L29.8362 32.7141L29.4308 32.7504L29.2102 33.2528L28.9344 33.3253L28.9523 34.3678C28.9013 34.5397 28.9082 34.7453 28.9386 34.9441C29.0089 35.3928 29.2102 35.8213 29.2102 35.8213L28.9703 36L27.9761 35.7125C27.3348 35.5916 26.9405 35.2571 26.7033 34.9441C26.4468 34.6069 26.371 34.2952 26.371 34.2952C26.2979 33.8089 26.1876 33.6303 26.1876 33.6303C25.5794 33.2891 25.1175 32.0316 25.1175 32.0316C25.112 32.0155 25.1051 32.0021 25.0982 31.9887C24.6569 30.9583 24.0295 30.4518 24.0295 30.4518H23.4214L23.238 30.2543L22.2052 30.2181V30.9193L21.5598 31.4029C20.6014 31.1705 19.923 30.0099 19.923 30.0099L19.9561 29.3744L17.8546 26.8959L15.8992 26.7521L15.7351 27.4897L12.2492 27.0759L8.24885 24.7223V24.0936H5.43994L5.34893 23.1183L5.31032 22.6938L4.83045 22.5151V21.9764H4.3878L4.32024 21.5882L3.94654 21.4915L3.24466 20.6478L2.32352 20.5403L2.0105 20.2891L2.05325 20.1642L2.05463 20.1628L2.1939 19.7665L2.08359 19.5704L1.98982 19.3367L2.11944 19.0129L1.53063 17.5943L1.36378 17.4492V17.2343L1.62164 16.9656V16.6969L1.19692 16.2106L1.23416 15.1507L0.846673 14.7369L0.883904 14.162L0.452294 13.5265L0.49642 12.6748L0.626041 12.1321L0 11.4456L0.351631 10.9781L0.995599 9.95447L0.922515 9.45205L1.10591 9.12829L1.18038 7.83596L2.36076 5.75103V5.28353L2.55794 5.00276L2.72893 4.7623L3.09849 3.6137V3.29129L3.43082 2.9138L3.22811 2.55377L3.25155 1.96806L3.55906 1.67654L3.26534 1.63624L3.28327 1.20636L3.09987 1.11635V0.830211L3.28327 0.346593H3.54113L3.70798 0.777819L4.3161 1.01157L4.96145 1.11904V1.55161L4.68566 1.9291L4.3161 2.05403L4.39056 2.629H4.92421L5.29377 2.19778V1.69266L5.44132 1.51399L5.14623 1.1365L5.35858 0.776476L5.44132 0.580342L5.27447 0.417792L5.43994 0L7.72485 0.686469L10.5476 1.42264L11.5142 1.63087L11.6355 1.65639L16.4481 2.41137L16.5529 2.42481L17.7277 2.56183L23.6986 3.26577L28.8917 3.48877L31.3255 3.32891V2.86141L31.8247 3.14755V3.73998L32.8575 4.10001L33.1526 3.77625L33.9262 4.02746L34.1482 4.38749L34.9039 4.6387L35.4941 4.45735L36.7834 4.65483L37.0978 4.17121L37.4839 4.13494L37.9996 3.59624L37.9638 3.39876L38.1113 3.13008L39.5123 3.18382L39.7702 3.34637L40.3052 4.33376L40.8389 4.35256L40.9492 4.06508L41.4111 4.33376L41.4483 4.8026L41.7434 4.99873L41.7572 5.37756L41.7614 5.52131L42.0744 5.53877V5.91626L42.4246 6.16748L42.5736 6.48989L43.827 6.41869L45.7148 6.38107L46.4636 7.10113L47.0524 7.96224L46.8304 8.33435H46.0113L45.5976 7.87357L45.468 7.94612L45.5204 8.33435L45.5604 8.62721L45.1729 9.30965L45.4307 10.3521L44.8406 10.8196L44.7868 11.7358L44.1787 11.9319V12.2382L44.8612 12.2745L45.8375 11.1783L46.7407 11.232L47.535 10.6221L48.0866 10.6396L48.2341 10.3521L48.1059 10.1009L47.5157 10.1734L47.4233 9.75968L48.0121 9.20352L49.0077 8.68363L49.7841 8.71856L49.6724 8.37734L50.9065 7.87492L51.1837 7.31875L51.9587 6.65378L54.9082 5.98746L55.0916 5.50519L55.5467 5.38025L55.5508 5.37891L55.6625 5.16397L55.6805 4.82275L55.9397 4.73274L55.9204 4.35525L55.6998 3.90522L56.0045 2.42346H58.0357L58.5211 3.90522L58.9637 3.92402L59.0161 4.38615L59.8214 4.4775Z" fill="white"/>
</svg>
